<svg width="51" height="64" viewBox="0 0 51 64" fill="none" xmlns="http://www.w3.org/2000/svg">
<path d="M50.8334 42.0827C51.8514 29.7353 44.1225 19.4614 40.5974 15.465L37.7698 17.9346C41.1629 21.8179 47.9493 31.13 47.0633 41.7808L50.8334 42.0827ZM34.8102 63.648C39.3386 62.0854 43.2904 59.1932 46.1491 55.3492C49.0077 51.5051 50.6403 46.8881 50.8334 42.1015L47.0633 41.7808C46.9333 45.845 45.571 49.7739 43.1572 53.0462C40.7433 56.3185 37.3919 58.7797 33.5472 60.1038L34.8102 63.648ZM24.3857 40.3103C29.777 45.5886 32.2088 53.0351 32.2842 61.895H36.0544C36.0544 52.4695 33.3587 43.8356 27.0248 37.6525L24.3857 40.3103ZM19.1074 62.0455C19.1074 57.8417 20.9925 54.8824 22.9907 51.4893C25.624 47.8376 27.2081 43.5349 27.5715 39.0475L23.8013 38.8965C23.6316 43.1568 21.8219 46.1355 19.7672 49.5476C17.1511 53.1892 15.6156 57.4948 15.3372 61.97L19.1074 62.0455ZM0.463867 40.0655C0.463867 48.8689 5.30854 59.878 16.6002 63.7989L17.8444 60.2359C8.41894 56.9935 4.30945 47.7566 4.23405 40.0278L0.463867 40.0655ZM14.8282 14.5602C11.43 17.5684 8.40483 20.9735 5.81751 24.7022C2.54213 29.1756 0.677867 34.5253 0.463867 40.0655H4.23405C4.46288 35.2972 6.10318 30.7044 8.94677 26.8699C11.3646 23.4107 14.18 20.2472 17.3354 17.4444L14.8282 14.5602ZM21.6711 1.85471C21.6711 6.11502 19.3902 10.5073 14.8282 14.5602L17.3354 17.369C22.3874 12.8824 25.4413 7.54768 25.4413 1.85471H21.6711ZM32.0391 24.9471L33.9242 25.2674V25.0603C33.9242 24.9095 33.9242 24.7208 33.9242 24.4758C33.9242 24.2307 34.0561 23.3069 34.0938 22.4586C34.2015 20.2359 34.1005 18.008 33.7922 15.8042C33.4716 12.6913 32.4714 9.68681 30.8623 7.00281C29.2532 4.31881 27.0745 2.02075 24.4799 0.271074L22.4629 3.47609C24.5857 4.93919 26.3614 6.85044 27.6643 9.07521C28.9672 11.3 29.7657 13.7837 30.0032 16.3509C30.2823 18.3045 30.3707 20.2808 30.2671 22.2515C30.2671 23.0055 30.2671 23.6276 30.1163 24.1366C29.9655 24.6456 30.1163 24.4948 30.1163 24.6079V24.7395L32.0391 24.9471ZM40.5786 15.5216C40.425 15.3091 40.2288 15.1307 40.0025 14.9983C39.7762 14.8659 39.5248 14.7823 39.2643 14.7526C39.0038 14.7228 38.74 14.7477 38.4896 14.8257C38.2393 14.9038 38.0081 15.0334 37.8106 15.2059C37.6131 15.3784 37.4538 15.5901 37.3428 15.8277C37.2318 16.0652 37.1715 16.3231 37.1659 16.5852C37.1603 16.8473 37.2094 17.108 37.3102 17.3501C37.4109 17.5922 37.561 17.8104 37.7509 17.9912L40.5786 15.5216ZM34.1881 61.8761H32.303C32.3065 62.1768 32.3819 62.472 32.5229 62.7377C32.664 63.0033 32.8665 63.2313 33.1136 63.4027C33.3607 63.5746 33.6454 63.685 33.9438 63.7244C34.2423 63.7637 34.5458 63.7311 34.829 63.6291L34.1881 61.8761ZM25.724 38.972L27.0436 37.6148C26.7818 37.3607 26.4518 37.188 26.0938 37.1178C25.7358 37.0475 25.365 37.0827 25.0266 37.219C24.6875 37.3537 24.3948 37.5839 24.184 37.8817C23.9732 38.1795 23.8533 38.5319 23.839 38.8965L25.724 38.972ZM17.2223 62.0077L16.6002 63.8928C16.8808 63.9917 17.1808 64.0228 17.4757 63.9835C17.7705 63.9442 18.0519 63.8358 18.2968 63.6669C18.5439 63.4955 18.7465 63.2675 18.8875 63.0018C19.0285 62.7362 19.1039 62.4405 19.1074 62.1398L17.2223 62.0077ZM23.5562 1.85471L24.5741 0.252204C24.2876 0.0867532 23.9625 0 23.6316 0C23.3007 0 22.9756 0.0867532 22.6891 0.252204C22.3916 0.414977 22.1435 0.655195 21.971 0.947147C21.7985 1.2391 21.7079 1.57221 21.7088 1.91132L23.5562 1.85471ZM30.1917 24.6267C30.1496 24.8743 30.1567 25.1275 30.2126 25.3723C30.2684 25.6171 30.372 25.8486 30.5173 26.0534C30.8107 26.4671 31.2564 26.7472 31.7564 26.8321C32.2563 26.9171 32.7696 26.8002 33.1832 26.5068C33.5968 26.2133 33.8769 25.7673 33.9619 25.2674L30.1917 24.6267Z" fill="black"/>
</svg>
