<svg width="226" height="47" viewBox="0 0 226 47" fill="none" xmlns="http://www.w3.org/2000/svg">
<path fill-rule="evenodd" clip-rule="evenodd" d="M9.29001 18.79C11.7565 18.79 14.122 19.7699 15.8661 21.5139C17.6102 23.258 18.59 25.6235 18.59 28.09H12L11.76 27.5C12.1186 27.0721 12.3506 26.5526 12.43 26C12.5178 25.4342 12.4305 24.855 12.18 24.34C11.9318 23.784 11.5202 23.3166 11 23C10.4979 22.6911 9.91955 22.5284 9.33001 22.53H9.26001L9.29001 18.79Z" fill="#8958E1"/>
<path d="M26.5 14.5C27.8807 14.5 29 13.3807 29 12C29 10.6193 27.8807 9.5 26.5 9.5C25.1193 9.5 24 10.6193 24 12C24 13.3807 25.1193 14.5 26.5 14.5Z" fill="#FD8DDD"/>
<path fill-rule="evenodd" clip-rule="evenodd" d="M6.28001 26C6.37378 26.5579 6.62338 27.0779 7 27.5L5.13 32H13.58L12 28.09H18.63C18.63 25.6235 17.6502 23.258 15.9061 21.5139C14.162 19.7698 11.7965 18.79 9.33 18.79V22.55C8.76139 22.5626 8.20612 22.7247 7.72 23.02C7.21991 23.3252 6.82013 23.7702 6.57 24.3C6.30258 24.8239 6.2014 25.417 6.28001 26ZM19 28C19 29.8789 18.4428 31.7156 17.399 33.2779C16.3551 34.8402 14.8714 36.0578 13.1355 36.7769C11.3996 37.4959 9.48947 37.684 7.64665 37.3175C5.80383 36.9509 4.11109 36.0461 2.78249 34.7175C1.45389 33.3889 0.549103 31.6962 0.182544 29.8534C-0.184016 28.0105 0.00411689 26.1004 0.723149 24.3645C1.44218 22.6286 2.65982 21.1449 4.22209 20.101C5.78435 19.0572 7.62108 18.5 9.5 18.5C12.0196 18.5 14.4359 19.5009 16.2175 21.2825C17.9991 23.0641 19 25.4804 19 28Z" fill="#00ECD2"/>
<path fill-rule="evenodd" clip-rule="evenodd" d="M9.29004 9.5C11.7313 9.5 14.1487 9.98085 16.4041 10.9151C18.6596 11.8493 20.7089 13.2186 22.4352 14.9449C24.1614 16.6711 25.5307 18.7205 26.465 20.9759C27.3992 23.2314 27.88 25.6487 27.88 28.09H18.59C18.59 25.6235 17.6102 23.258 15.8661 21.5139C14.122 19.7698 11.7566 18.79 9.29004 18.79V9.5Z" fill="#FD8DDD"/>
<path d="M44.5162 18.4582C47.7014 18.4582 50.4005 19.7994 50.4005 23.5713C50.4005 27.3433 47.7014 28.6676 44.5162 28.6676C42.3872 28.6676 40.6772 28.0977 39.6043 26.9745V32.6911H36.7209V18.6259H39.6043V20.1514C40.6772 19.045 42.3872 18.4582 44.5162 18.4582ZM43.5607 26.2704C46.1256 26.2704 47.5338 25.516 47.5338 23.5713C47.5338 21.6099 46.1256 20.8555 43.5607 20.8555C40.9957 20.8555 39.6043 21.6099 39.6043 23.5713C39.6043 25.516 40.9957 26.2704 43.5607 26.2704ZM59.4173 18.4582C60.5908 18.4582 61.4122 18.6259 62.0828 18.7935V21.1908C61.144 20.9561 60.3896 20.8555 59.5514 20.8555C57.942 20.8555 56.098 21.2243 54.3545 22.5822V28.5H51.4878V18.6259H54.3545V20.3023C55.8297 18.9779 57.5732 18.4582 59.4173 18.4582ZM69.1942 28.6676C65.1038 28.6676 62.3544 27.1924 62.3544 23.5713C62.3544 19.9335 65.1038 18.4582 69.1942 18.4582C73.2679 18.4582 76.034 19.9335 76.034 23.5713C76.034 27.1924 73.2679 28.6676 69.1942 28.6676ZM69.1942 26.2704C71.843 26.2704 73.1506 25.6166 73.1506 23.5713C73.1506 21.5093 71.843 20.8555 69.1942 20.8555C66.5287 20.8555 65.2211 21.5093 65.2211 23.5713C65.2211 25.6166 66.5287 26.2704 69.1942 26.2704ZM84.9207 18.4582C88.1059 18.4582 90.8049 19.7994 90.8049 23.5713C90.8049 27.3433 88.1059 28.6676 84.9207 28.6676C82.7916 28.6676 81.0817 28.0977 80.0087 26.9745V32.6911H77.1253V18.6259H80.0087V20.1514C81.0817 19.045 82.7916 18.4582 84.9207 18.4582ZM83.9651 26.2704C86.53 26.2704 87.9382 25.516 87.9382 23.5713C87.9382 21.6099 86.53 20.8555 83.9651 20.8555C81.4002 20.8555 80.0087 21.6099 80.0087 23.5713C80.0087 25.516 81.4002 26.2704 83.9651 26.2704ZM98.3968 26.3374C100.375 26.3374 101.582 25.9686 102.303 24.9627H105.153C104.499 27.4774 102.051 28.6676 98.3968 28.6676C94.6416 28.6676 91.7246 27.1924 91.7246 23.5713C91.7246 19.9335 94.5577 18.4582 98.5644 18.4582C102.32 18.4582 105.32 19.7491 105.32 24.2419H94.6583C94.9768 25.8177 96.4856 26.3374 98.3968 26.3374ZM98.5476 20.6376C96.5862 20.6376 95.2115 21.0232 94.7589 22.4146H102.253C101.766 21.0232 100.358 20.6376 98.5476 20.6376ZM114.343 18.4582C115.517 18.4582 116.338 18.6259 117.009 18.7935V21.1908C116.07 20.9561 115.315 20.8555 114.477 20.8555C112.868 20.8555 111.024 21.2243 109.28 22.5822V28.5H106.414V18.6259H109.28V20.3023C110.756 18.9779 112.499 18.4582 114.343 18.4582ZM118.185 15.0886H121.051V28.5H118.185V15.0886ZM122.392 15.0886H125.259V17.5865H122.392V15.0886ZM122.392 18.6259H125.259V28.5H122.392V18.6259ZM136.985 18.6259H140.17L135.158 28.5H131.067L126.072 18.6259H129.257L133.129 26.4715L136.985 18.6259ZM146.332 26.3374C148.31 26.3374 149.517 25.9686 150.238 24.9627H153.088C152.434 27.4774 149.987 28.6676 146.332 28.6676C142.577 28.6676 139.66 27.1924 139.66 23.5713C139.66 19.9335 142.493 18.4582 146.5 18.4582C150.255 18.4582 153.256 19.7491 153.256 24.2419H142.594C142.912 25.8177 144.421 26.3374 146.332 26.3374ZM146.483 20.6376C144.521 20.6376 143.147 21.0232 142.694 22.4146H150.188C149.702 21.0232 148.293 20.6376 146.483 20.6376Z" fill="black"/>
<g clip-path="url(#clip0_31_1370)">
<path opacity="0.04" d="M203 46.5C215.703 46.5 226 36.2025 226 23.5C226 10.7975 215.703 0.5 203 0.5C190.297 0.5 180 10.7975 180 23.5C180 36.2025 190.297 46.5 203 46.5Z" fill="black"/>
<path d="M202 14.5H194V22.5H202V14.5Z" fill="black"/>
<path d="M212 14.5H204V22.5H212V14.5Z" fill="black"/>
<path d="M202 24.5H194V32.5H202V24.5Z" fill="black"/>
<path d="M211 25.5H205V31.5H211V25.5Z" fill="black"/>
</g>
<defs>
<clipPath id="clip0_31_1370">
<rect width="46" height="46" fill="white" transform="translate(180 0.5)"/>
</clipPath>
</defs>
</svg>
