<svg width="39" height="42" viewBox="0 0 39 42" fill="none" xmlns="http://www.w3.org/2000/svg">
<path d="M38.6552 27.669V7.09229C38.6572 6.19081 38.4815 5.29807 38.1381 4.46456C37.7947 3.63105 37.2903 2.87326 36.6539 2.23482C35.36 0.956178 33.6154 0.237671 31.7963 0.233819H7.79936C6.89797 0.231419 6.00499 0.406996 5.17175 0.750836C4.33851 1.09468 3.58144 1.59965 2.94406 2.23704C2.30668 2.87442 1.80153 3.63177 1.45769 4.46501C1.11385 5.29825 0.938053 6.19089 0.940454 7.09229V27.669C0.940454 29.4881 1.6631 31.2326 2.94939 32.5189C4.23568 33.8052 5.98028 34.5279 7.79936 34.5279H10.7467L18.4788 40.9684C18.7499 41.2063 19.0855 41.3583 19.4431 41.405C19.7971 41.4411 20.1544 41.3846 20.4801 41.2411C20.8051 41.0882 21.082 40.8493 21.2806 40.55C21.4674 40.2427 21.568 39.8907 21.5717 39.5311V34.5644H31.8509C33.6738 34.5616 35.4209 33.8355 36.7085 32.5451C37.3405 31.9024 37.8382 31.1401 38.1725 30.303C38.5067 29.4658 38.6708 28.5703 38.6552 27.669Z" fill="#FD8DDD"/>
<path d="M22.2269 17.3173L27.8669 11.6772C28.0351 11.5165 28.171 11.3254 28.2671 11.1136C28.3459 10.9039 28.389 10.6823 28.3945 10.4584C28.3979 10.2277 28.3545 9.99898 28.2671 9.78549C28.1878 9.57347 28.0639 9.38056 27.9038 9.2205C27.7438 9.06044 27.5512 8.93693 27.3392 8.85761C27.1257 8.77019 26.8968 8.72675 26.6661 8.73013C26.4401 8.73292 26.2171 8.78262 26.0112 8.87582C25.7959 8.95738 25.6027 9.08816 25.4471 9.25781L19.8072 14.8975L14.1491 9.25781C14.0001 9.08895 13.813 8.95806 13.6033 8.87582C13.3902 8.78489 13.1618 8.73535 12.9302 8.73013C12.7055 8.7282 12.4827 8.77163 12.2752 8.85761C12.068 8.94629 11.8774 9.06921 11.7112 9.22139C11.5514 9.38523 11.422 9.57631 11.3291 9.78549C11.2503 10.0014 11.2073 10.2286 11.2018 10.4584C11.2134 10.6833 11.2626 10.9049 11.3473 11.1136C11.438 11.3239 11.5677 11.515 11.7294 11.6772L17.3875 17.3173L11.7294 22.9756C11.566 23.1295 11.4359 23.3149 11.3473 23.5211C11.2626 23.7361 11.2134 23.9636 11.2018 24.1944C11.2089 24.4182 11.2519 24.6391 11.3291 24.8492C11.5129 25.2732 11.8511 25.6115 12.2752 25.7952C12.4853 25.8725 12.7064 25.9156 12.9302 25.9227C13.1618 25.9175 13.3902 25.868 13.6033 25.777C13.8095 25.6884 13.9953 25.5585 14.1491 25.395L19.8072 19.7372L25.4471 25.395C25.606 25.5494 25.794 25.671 26.0001 25.7522C26.2062 25.8334 26.4264 25.8726 26.6479 25.8681C27.0971 25.8684 27.5284 25.6919 27.8486 25.3768C28.0096 25.221 28.1376 25.0345 28.2251 24.8283C28.3126 24.622 28.3578 24.4003 28.3581 24.1762C28.3623 23.9532 28.3209 23.7316 28.2365 23.5251C28.152 23.3186 28.0262 23.1318 27.8669 22.9756L22.2269 17.3173Z" fill="white"/>
</svg>
