<svg width="88" height="106" viewBox="0 0 88 106" fill="none" xmlns="http://www.w3.org/2000/svg">
<path d="M82.8114 39.133C83.4841 37.7324 83.8323 36.1984 83.8302 34.6446C83.828 33.0909 83.4755 31.5576 82.7989 30.1589C82.1223 28.7602 81.1389 27.5322 79.9221 26.566C78.7053 25.5999 77.2862 24.9203 75.7705 24.5784C75.7189 24.5656 75.6704 24.543 75.6277 24.5113C75.585 24.4796 75.5491 24.4397 75.522 24.394C75.4949 24.3483 75.4772 24.2974 75.4699 24.2448C75.4626 24.1921 75.4658 24.1385 75.4795 24.0871C75.794 23.0988 75.9536 22.0679 75.9525 21.0307C75.9525 18.2901 74.8637 15.6616 72.9258 13.7237C70.9878 11.7857 68.3594 10.6971 65.6187 10.6971C64.9527 10.6988 64.2885 10.7656 63.6356 10.897C63.5773 10.9077 63.5173 10.9055 63.46 10.8903C63.4027 10.8751 63.3495 10.8473 63.3042 10.809C63.259 10.7707 63.2228 10.7231 63.1983 10.6691C63.1738 10.6151 63.1616 10.556 63.1626 10.4968C63.1604 8.31675 62.4688 6.19343 61.1867 4.43025C59.9047 2.66706 58.0979 1.35432 56.0248 0.6801C53.9517 0.00587942 51.7184 0.00478552 49.6445 0.676547C47.5706 1.34831 45.7622 2.65881 44.4781 4.42048C44.4441 4.47699 44.3961 4.52348 44.3387 4.55595C44.2813 4.58841 44.2165 4.6057 44.1506 4.6057C44.0847 4.6057 44.0198 4.58841 43.9625 4.55595C43.9051 4.52348 43.8571 4.47699 43.8231 4.42048C42.5427 2.65494 40.7357 1.3406 38.6616 0.666331C36.5875 -0.00793998 34.353 -0.00744343 32.2792 0.667663C30.2054 1.34277 28.3989 2.65753 27.1192 4.42359C25.8395 6.18964 25.1525 8.31581 25.1568 10.4968C25.1551 10.5569 25.1405 10.616 25.1139 10.67C25.0873 10.7239 25.0494 10.7715 25.0028 10.8095C24.9562 10.8474 24.9019 10.8752 24.8437 10.8903C24.7855 10.9054 24.7248 10.9074 24.6656 10.897C24.0127 10.7656 23.3485 10.6988 22.6825 10.6971C21.3263 10.6971 19.9834 10.9646 18.7307 11.4841C17.4779 12.0037 16.3399 12.7652 15.3818 13.725C14.4237 14.6848 13.6642 15.824 13.1469 17.0776C12.6296 18.3313 12.3645 19.6746 12.3669 21.0307C12.3596 22.067 12.513 23.0979 12.8217 24.0871C12.8381 24.1385 12.8435 24.193 12.8374 24.2466C12.8313 24.3001 12.8139 24.3521 12.7864 24.3985C12.7589 24.4449 12.7219 24.4847 12.6778 24.5157C12.6337 24.5468 12.5836 24.5681 12.5306 24.5784C10.2279 25.1021 8.17395 26.3988 6.71082 28.2525C5.2477 30.1063 4.46365 32.4053 4.48919 34.7668C4.48837 36.2841 4.76586 37.7886 5.30789 39.2058L82.8114 39.133Z" fill="#FEDBA6"/>
<path d="M83.8121 34.7671C83.8113 36.3026 83.4695 37.8188 82.8115 39.2061H78.3541C79.3692 37.4206 79.6539 35.3117 79.1486 33.3209C78.6433 31.3301 77.3871 29.6121 75.6433 28.5269C74.3661 27.8656 72.9896 27.417 71.568 27.1988C71.5152 27.1891 71.4651 27.1675 71.4215 27.1362C71.3778 27.1049 71.3417 27.0646 71.3156 27.0176C71.2895 26.9706 71.2741 26.9184 71.2706 26.8648C71.267 26.8112 71.2754 26.7576 71.2951 26.7076C73.2418 20.3763 69.3302 14.4635 62.5077 14.4635C61.8423 14.4593 61.1782 14.5199 60.5247 14.6452C60.4663 14.656 60.4064 14.6537 60.3491 14.6385C60.2918 14.6233 60.2386 14.5955 60.1933 14.5572C60.148 14.5189 60.1118 14.4709 60.0873 14.4169C60.0628 14.3629 60.0506 14.3043 60.0516 14.245C60.0516 8.00468 56.6495 1.76429 50.6457 0.508953C51.3621 0.347548 52.0945 0.268413 52.8289 0.272653C55.5696 0.272653 58.198 1.36128 60.136 3.29924C62.0739 5.23721 63.1627 7.86563 63.1627 10.6063C63.1617 10.6656 63.1739 10.7242 63.1984 10.7782C63.2229 10.8322 63.2591 10.8803 63.3043 10.9186C63.3496 10.9569 63.4028 10.9846 63.4601 10.9999C63.5174 11.0151 63.5774 11.0173 63.6357 11.0065C64.2886 10.8752 64.9528 10.8084 65.6188 10.8066C68.3595 10.8066 70.9879 11.8953 72.9259 13.8332C74.8638 15.7712 75.9526 18.3996 75.9526 21.1403C75.9537 22.1775 75.7941 23.2084 75.4796 24.1967C75.4659 24.248 75.4627 24.3017 75.47 24.3543C75.4773 24.407 75.495 24.4579 75.5221 24.5036C75.5492 24.5493 75.5851 24.5892 75.6278 24.6209C75.6705 24.6525 75.719 24.6752 75.7706 24.6879C78.055 25.2076 80.0951 26.4881 81.5562 28.3195C83.0173 30.1508 83.8127 32.4243 83.8121 34.7671Z" fill="#FECE85"/>
<path d="M64.2543 39.1331C64.5972 38.4108 64.7773 37.622 64.7819 36.8225C64.7668 35.608 64.3471 34.4336 63.5892 33.4845C62.8312 32.5355 61.7784 31.8663 60.5974 31.583C60.5706 31.5768 60.5454 31.5653 60.5233 31.5488C60.5012 31.5324 60.4827 31.5114 60.4691 31.4875C60.4554 31.4636 60.4468 31.4372 60.4439 31.4098C60.4409 31.3824 60.4436 31.3548 60.4519 31.3285C60.6056 30.8086 60.6852 30.2694 60.6884 29.7273C60.6645 28.2956 60.0789 26.9305 59.058 25.9265C58.037 24.9225 56.6623 24.3601 55.2304 24.3603C54.8818 24.3587 54.534 24.3954 54.1934 24.4696C54.1618 24.4749 54.1295 24.4733 54.0986 24.4647C54.0678 24.4562 54.0392 24.4407 54.0149 24.4199C53.9906 24.399 53.9711 24.3731 53.958 24.3439C53.9448 24.3147 53.9382 24.2831 53.9387 24.2511C53.8858 23.1434 53.4967 22.078 52.8233 21.1969C52.1499 20.3159 51.224 19.6608 50.169 19.319C49.114 18.9772 47.98 18.9651 46.9178 19.2839C45.8557 19.6027 44.9158 20.2374 44.2234 21.1037C44.205 21.1299 44.1805 21.1515 44.152 21.1663C44.1235 21.1811 44.0918 21.189 44.0597 21.189C44.0276 21.189 43.9959 21.1811 43.9674 21.1663C43.9389 21.1515 43.9144 21.1299 43.896 21.1037C43.2036 20.2374 42.2637 19.6027 41.2016 19.2839C40.1394 18.9651 39.0053 18.9772 37.9504 19.319C36.8954 19.6608 35.9695 20.3159 35.2961 21.1969C34.6227 22.078 34.2336 23.1434 34.1807 24.2511C34.1812 24.2831 34.1746 24.3147 34.1614 24.3439C34.1482 24.3731 34.1288 24.399 34.1045 24.4199C34.0802 24.4407 34.0516 24.4562 34.0208 24.4647C33.9899 24.4733 33.9576 24.4749 33.926 24.4696C33.5854 24.3954 33.2376 24.3587 32.889 24.3603C31.4571 24.3601 30.0824 24.9225 29.0614 25.9265C28.0404 26.9305 27.4549 28.2956 27.431 29.7273C27.4342 30.2694 27.5138 30.8086 27.6675 31.3285C27.6758 31.3548 27.6785 31.3824 27.6755 31.4098C27.6726 31.4372 27.664 31.4636 27.6503 31.4875C27.6366 31.5114 27.6182 31.5324 27.5961 31.5488C27.574 31.5653 27.5488 31.5768 27.522 31.583C26.3409 31.8663 25.2881 32.5355 24.5302 33.4845C23.7723 34.4336 23.3526 35.608 23.3375 36.8225C23.34 37.6129 23.4881 38.3962 23.7742 39.1331H64.2543Z" fill="#FEC165"/>
<path d="M64.7816 36.8228C64.7771 37.6223 64.597 38.4111 64.254 39.1333H61.4886C61.4886 37.1139 61.4886 36.2225 60.5608 35.0945C59.9771 34.3462 59.1324 33.8458 58.1957 33.6936C58.0392 33.7211 57.8791 33.7211 57.7226 33.6936C57.2314 33.5116 57.3042 33.0935 57.3952 32.6751C57.5763 31.9408 57.5986 31.176 57.4606 30.4325C57.3225 29.6889 57.0273 28.9834 56.5946 28.3631C55.7617 27.5606 54.6581 27.0997 53.5018 27.0714C53.009 27.0773 52.5164 27.0468 52.0281 26.9803C51.3914 26.8348 51.5369 25.9982 51.4459 25.4342C51.3551 24.7412 51.1967 24.0585 50.9729 23.3963C50.6202 22.4171 49.9875 21.5628 49.1536 20.94C48.442 20.4524 47.6795 20.0438 46.8794 19.7212L46.3154 19.4667C47.1357 19.1048 48.0326 18.9506 48.9266 19.0177C49.8207 19.0847 50.6845 19.3707 51.4417 19.8509C52.1989 20.3311 52.8261 20.9905 53.2679 21.7706C53.7097 22.5508 53.9525 23.4279 53.9748 24.3242C53.9744 24.3562 53.981 24.3879 53.9941 24.417C54.0073 24.4462 54.0267 24.4721 54.051 24.493C54.0753 24.5138 54.1039 24.5288 54.1348 24.5374C54.1656 24.546 54.198 24.5476 54.2295 24.5423C54.5702 24.4681 54.9179 24.4318 55.2665 24.4335C56.6985 24.4333 58.0731 24.9956 59.0941 25.9996C60.1151 27.0036 60.7007 28.3687 60.7245 29.8004C60.7213 30.3425 60.6417 30.8813 60.488 31.4012C60.4798 31.4275 60.4771 31.4555 60.48 31.4829C60.483 31.5103 60.4916 31.5367 60.5052 31.5606C60.5189 31.5846 60.5373 31.6051 60.5594 31.6215C60.5815 31.638 60.6067 31.6499 60.6336 31.6561C61.796 31.9432 62.8318 32.6044 63.5814 33.5381C64.3309 34.4718 64.7527 35.6258 64.7816 36.8228Z" fill="#FEA613"/>
<path d="M68.3657 25.8889H68.0564C67.6522 25.8051 67.2953 25.5701 67.0586 25.232C66.8219 24.8938 66.7232 24.478 66.7828 24.0696C66.889 23.5551 66.8573 23.0213 66.6912 22.523C66.5251 22.0246 66.2304 21.5792 65.8368 21.2313C65.4391 20.8918 64.961 20.6599 64.4482 20.5579C63.9353 20.456 63.4049 20.4874 62.9077 20.649C62.7082 20.7177 62.4971 20.7461 62.2866 20.7329C62.076 20.7198 61.8702 20.6651 61.6808 20.5722C61.4915 20.4792 61.3224 20.3496 61.1832 20.1911C61.0441 20.0325 60.9376 19.8481 60.87 19.6483C60.7308 19.2429 60.7579 18.7988 60.9455 18.4135C61.133 18.0281 61.4657 17.7331 61.8706 17.5927C62.9028 17.2421 64.009 17.1696 65.0781 17.3826C66.1471 17.5955 67.1412 18.0863 67.9601 18.8057C68.7791 19.525 69.3941 20.4474 69.7431 21.48C70.0922 22.5127 70.163 23.6191 69.9485 24.6879C69.8584 25.037 69.6531 25.3454 69.3658 25.5633C69.0786 25.7813 68.7262 25.8962 68.3657 25.8889Z" fill="#FEC165"/>
<path d="M44.1506 48.2844H7.36377L12.9309 102.082C13.026 103.078 13.4887 104.002 14.2288 104.675C14.9689 105.348 15.9332 105.721 16.9335 105.721H71.4406C72.4408 105.721 73.4051 105.348 74.1452 104.675C74.8853 104.002 75.3481 103.078 75.4431 102.082L81.0103 48.3026L44.1506 48.2844Z" fill="#F3F0F3"/>
<path d="M21.6272 48.2844L25.4478 105.721H16.8606C15.8603 105.721 14.896 105.348 14.1559 104.675C13.4158 104.002 12.9531 103.078 12.858 102.082L7.30908 48.3026L21.6272 48.2844Z" fill="#E41F2D"/>
<path d="M35.8725 48.2844H52.4284L50.1542 105.721H38.1649L35.8725 48.2844Z" fill="#E41F2D"/>
<path d="M80.9375 48.2844L75.3703 102.082C75.2793 103.079 74.8177 104.006 74.0768 104.68C73.3358 105.354 72.3692 105.725 71.3678 105.721H62.8533L66.6739 48.2844H80.9375Z" fill="#E41F2D"/>
<path d="M80.9374 48.2844L75.3702 102.082C75.2752 103.078 74.8124 104.002 74.0723 104.675C73.3322 105.348 72.3679 105.721 71.3677 105.721H65.9825C66.9839 105.725 67.9505 105.354 68.6914 104.68C69.4324 104.006 69.894 103.079 69.985 102.082L75.5522 48.3026L80.9374 48.2844Z" fill="#D3162D"/>
<path d="M2.77899 38.4056H85.5221C86.0046 38.4056 86.4674 38.5974 86.8086 38.9386C87.1498 39.2798 87.3414 39.7424 87.3414 40.2249V46.8471C87.3414 47.3296 87.1498 47.7927 86.8086 48.1338C86.4674 48.475 86.0046 48.6664 85.5221 48.6664H2.77899C2.29647 48.6664 1.83371 48.475 1.49252 48.1338C1.15133 47.7927 0.959656 47.3296 0.959656 46.8471V40.2249C0.959656 39.7424 1.15133 39.2798 1.49252 38.9386C1.83371 38.5974 2.29647 38.4056 2.77899 38.4056Z" fill="#E2E2E2"/>
</svg>
