<svg width="47" height="51" viewBox="0 0 47 51" fill="none" xmlns="http://www.w3.org/2000/svg">
<path d="M0.214243 34.195V9.01532C0.21185 7.91238 0.427046 6.82008 0.847466 5.8004C1.26789 4.78073 1.8853 3.85393 2.66435 3.07319C3.44341 2.29244 4.36876 1.67293 5.38752 1.2503C6.40628 0.827673 7.49838 0.610247 8.60133 0.610249H37.9836C39.088 0.607851 40.1821 0.823415 41.2029 1.24497C42.2238 1.66653 43.1514 2.28554 43.9324 3.06652C44.7133 3.84751 45.3324 4.7751 45.7539 5.79596C46.1755 6.81682 46.3913 7.91085 46.3889 9.01532V34.195C46.3913 35.2995 46.1755 36.3935 45.7539 37.4144C45.3324 38.4352 44.7133 39.3628 43.9324 40.1438C43.1514 40.9248 42.2238 41.5438 41.2029 41.9654C40.1821 42.3869 39.088 42.6025 37.9836 42.6001H34.3449L24.9571 50.4597C24.6172 50.7348 24.2081 50.9111 23.7746 50.9692C23.3396 51.0311 22.8961 50.9612 22.501 50.7689C22.0991 50.5918 21.7576 50.3014 21.5184 49.9329C21.2793 49.5645 21.1529 49.1343 21.1548 48.695V42.6001H8.56496C7.46202 42.6001 6.36991 42.3827 5.35115 41.96C4.33239 41.5374 3.40698 40.9179 2.62793 40.1372C1.84888 39.3564 1.23146 38.43 0.811044 37.4104C0.390623 36.3907 0.175484 35.298 0.177876 34.195H0.214243Z" fill="#00ECD2"/>
<path d="M19.1354 32.1028C18.8582 32.1037 18.5835 32.0491 18.3274 31.9429C18.0713 31.8368 17.8389 31.6809 17.6436 31.4841L13.4591 27.2814C13.265 27.0901 13.1108 26.8621 13.0055 26.6107C12.9003 26.3592 12.8461 26.0895 12.8461 25.8169C12.8461 25.5443 12.9003 25.2746 13.0055 25.0232C13.1108 24.7718 13.265 24.5438 13.4591 24.3525C13.6498 24.1545 13.8788 23.9974 14.1322 23.891C14.3856 23.7846 14.658 23.7312 14.9328 23.7338C15.4806 23.7309 16.0084 23.9396 16.4064 24.3161L18.8808 26.8083L30.0333 11.9445C30.1969 11.7261 30.4006 11.5408 30.6336 11.3986C30.8763 11.2624 31.1411 11.1701 31.4159 11.1259C31.9636 11.0573 32.5167 11.2005 32.9624 11.5261C33.1911 11.6911 33.3832 11.9014 33.5263 12.1444C33.6568 12.3816 33.7431 12.6408 33.7811 12.9088C33.8433 13.1782 33.8433 13.4581 33.7811 13.7274C33.715 13.996 33.5976 14.2492 33.4354 14.4732L20.8274 31.2656C20.6478 31.5061 20.4181 31.7048 20.1543 31.8479C19.8928 31.9978 19.6001 32.0853 19.2992 32.1028H19.1354Z" fill="white"/>
</svg>
